# Blender v2.75 (sub 0) OBJ File: 'tanne.blend'
# www.blender.org
mtllib tanne.mtl
o Cone.000_Cone.196
v 0.418474 14.760885 -12.781695
v 0.418474 31.409050 0.644014
v 13.187080 14.760881 -3.504758
v 8.309906 14.760883 11.505641
v -7.472960 14.760885 11.505640
v -12.350134 14.760887 -3.504759
v 10.368193 23.926855 -0.647358
v -0.106895 48.113472 0.814273
v 4.520179 23.926855 10.325006
v -7.722295 23.926855 8.153859
v -9.440544 23.926855 -4.160346
v 1.739992 23.926855 -9.599796
v 0.480724 0.157486 -2.732727
v 0.480724 16.708633 -1.815202
v 2.924996 0.157486 -1.321525
v 2.121954 16.623924 -0.857888
v 2.924996 0.157486 1.500878
v 2.109489 16.498869 1.030045
v 0.480724 0.157486 2.912079
v 0.480724 16.477856 1.967995
v -1.963549 0.157486 1.500878
v -1.157679 16.595566 1.035609
v -1.963549 0.157486 -1.321525
v -1.188460 16.904392 -0.874027
v 0.177356 19.119032 -11.350160
v 0.177356 36.334656 0.605595
v 11.547954 19.119030 -3.088936
v 7.204772 19.119032 10.278005
v -6.850060 19.119034 10.278003
v -11.193241 19.119034 -3.088937
vn -0.412400 0.333500 -0.847700
vn 0.832000 0.333500 0.443400
vn -0.933700 0.333500 0.130300
vn 0.678800 0.333500 -0.654200
vn -0.164600 0.333500 0.928300
vn 0.000000 -1.000000 0.000000
vn -0.796500 0.546400 0.258800
vn 0.492300 0.546400 -0.677600
vn 0.000000 0.546400 0.837500
vn -0.492300 0.546400 -0.677600
vn 0.796500 0.546400 0.258800
vn 0.501700 0.048300 -0.863700
vn 0.998800 0.049300 0.004000
vn 0.498800 0.049900 0.865300
vn -0.496200 0.049500 0.866800
vn 0.057100 0.995300 0.078300
vn -0.494200 0.047100 -0.868100
vn -0.998800 0.047600 0.009600
vn -0.829200 0.489800 0.269400
vn 0.512400 0.489800 -0.705300
vn 0.000000 0.489800 0.871800
vn -0.512400 0.489800 -0.705300
vn 0.829200 0.489800 0.269400
g Cone.000_Cone.196_white
usemtl white
s off
f 11//1 8//1 12//1
f 7//2 8//2 9//2
f 10//3 8//3 11//3
f 12//4 8//4 7//4
f 9//5 8//5 10//5
f 7//6 9//6 10//6 11//6 12//6
g Cone.000_Cone.196_green
usemtl green
f 5//7 2//7 6//7
f 1//8 2//8 3//8
f 4//9 2//9 5//9
f 6//10 2//10 1//10
f 3//11 2//11 4//11
f 1//6 3//6 4//6 5//6 6//6
g Cone.000_Cone.196_brown
usemtl brown
f 13//12 14//12 16//12 15//12
f 15//13 16//13 18//13 17//13
f 17//14 18//14 20//14 19//14
f 19//15 20//15 22//15 21//15
f 16//16 14//16 24//16 22//16 20//16 18//16
f 23//17 24//17 14//17 13//17
f 21//18 22//18 24//18 23//18
f 13//6 15//6 17//6 19//6 21//6 23//6
g Cone.000_Cone.196_darkwhite
usemtl darkwhite
f 29//19 26//19 30//19
f 25//20 26//20 27//20
f 28//21 26//21 29//21
f 30//22 26//22 25//22
f 27//23 26//23 28//23
f 25//6 27//6 28//6 29//6 30//6
